#define left_width 8
#define left_height 16
static unsigned char left_bits[] = {
   0xff, 0xff, 0xff, 0xff, 0xff, 0xff, 0xff, 0xff, 0xff, 0xff, 0xff, 0xff,
   0xfe, 0xfc, 0xf8, 0xf0 };
