#define right_width 8
#define right_height 16
static unsigned char right_bits[] = {
   0xff, 0xff, 0xff, 0xff, 0xff, 0xff, 0xff, 0xff, 0xff, 0xff, 0xff, 0xff,
   0x7f, 0x3f, 0x1f, 0x0f };
