#define _width 4
#define _height 14
static char _bits[] = {
 0x0f,0x0f,0xff,0xff,0xff,0xff,0xff,0xff,0xff,0xff,0xff,0xf7,0xf3,0xf1 };
