#define _width 4
#define _height 14
static char _bits[] = {
 0x4f,0x2f,0x0f,0x0f,0x0f,0x0f,0x0f,0x0f,0x0f,0x0f,0x3f,0x2e,0x4c,0x08 };
